<?xml version="1.0" encoding="UTF-8"?>
<svg width="400" height="200" viewBox="0 0 400 200" xmlns="http://www.w3.org/2000/svg">
  <path d="M47.94731428545001,98.57294661722752 C59.00103423696402,82.67318189151902 74.58361583749843,66.86920690885185 92.40518530353074,56.55363342974257 C110.2364266852513,46.23246160211768 130.52578202916092,41.29582477394299 150.7456073655334,47.61377501973046 L150.7456073655334,47.61377501973046 C176.25018591147852,55.58301588172736 189.4664689353627,77.693979371543 202.14078805117543,98.70886618821113 C215.0139651320202,120.05347309394716 227.34517830479317,140.30200332653544 250.7456073655334,147.61377501973047 L250.7456073655334,147.61377501973047 C269.21992621045126,153.38631881500467 288.04006144798245,148.9879569511316 305.0900293116597,139.11900592246712 C322.14966909102486,129.24445654528725 337.2200153998457,114.00318450742326 347.94731428545003,98.57294661722752 C348.7354541059497,97.43927960088604 350.29338636643104,97.15917446495034 351.4270533827725,97.94731428545003 C352.56072039911396,98.73545410594973 352.84082553504965,100.29338636643101 352.05268571454997,101.42705338277248 C340.9989657630358,117.32681810848118 325.41638416250186,133.130793091148 307.59481469646926,143.44636657025745 C289.76357331474867,153.76753839788233 269.47421797083894,158.70417522605698 249.2543926344666,152.38622498026953 L249.2543926344666,152.38622498026953 C223.74981408852133,144.41698411827258 210.53353106463734,122.30602062845708 197.85921194882457,101.29113381178887 C184.98603486797987,79.94652690605291 172.6548216952067,59.69799667346453 149.2543926344666,52.38622498026954 L149.2543926344666,52.38622498026954 C130.78007378954874,46.613681184995336 111.95993855201756,51.01204304886845 94.90997068834034,60.88099407753288 C77.85033090897501,70.75554345471284 62.779984600154336,85.99681549257674 52.05268571454999,101.42705338277248 C51.2645458940503,102.56072039911398 49.706613633569,102.84082553504967 48.572946617227515,102.05268571455 C47.439279600886024,101.2645458940503 47.15917446495032,99.70661363356899 47.94731428545001,98.57294661722752" stroke="orange" stroke-width="2" fill="none"/>
</svg>