<?xml version="1.0" encoding="UTF-8"?>
<svg width="400" height="200" viewBox="0 0 400 200" xmlns="http://www.w3.org/2000/svg">
  <path d="M50,-5 C65.17490459108026,-4.492029992633443 78.58811054579381,1.8984271160724777 88.00165042944954,11.998349570550445 C97.39551056701622,22.077157342148233 102.96166763724644,35.45894141050834 102.5,50 L102.5,50 C102.96166763724644,64.54105858949167 97.39551056701622,77.92284265785175 88.00165042944954,88.00165042944954 C78.58811054579381,98.10157288392752 65.17490459108026,104.49202999263345 50,105 L50,105 C34.825095408919765,104.49202999263345 21.411889454206175,98.1015728839275 11.998349570550445,88.00165042944954 C2.604489432983792,77.92284265785176 -2.9616676372464315,64.54105858949166 -2.5,50 L-2.5,50 C-2.9616676372464306,35.45894141050836 2.604489432983792,22.07715734214822 11.998349570550445,11.998349570550445 C21.411889454206168,1.8984271160724777 34.825095408919765,-4.4920299926334435 50,-5 L50,-5 Z M50,5 L50,5 C37.58437000978668,4.658595904273449 25.978645127087365,9.135006972287517 17.301650429449552,17.301650429449552 C8.678582033256154,25.41753934633512 2.8785961710064853,36.8463619010083 2.5,50 L2.5,50 C2.878596171006485,63.15363809899168 8.678582033256152,74.58246065366488 17.301650429449552,82.69834957055045 C25.978645127087347,90.86499302771247 37.58437000978672,95.34140409572655 50,95 L50,95 C62.41562999021327,95.34140409572655 74.02135487291265,90.86499302771247 82.69834957055045,82.69834957055045 C91.32141796674381,74.58246065366491 97.12140382899352,63.15363809899165 97.5,50 L97.5,50 C97.12140382899352,36.84636190100832 91.32141796674381,25.417539346335086 82.69834957055045,17.301650429449552 C74.02135487291264,9.135006972287517 62.41562999021328,4.65859590427345 50,5 Z" stroke="orange" stroke-width="2" fill="none"/>
</svg>