<?xml version="1.0" encoding="UTF-8"?>
<svg width="400" height="200" viewBox="0 0 400 200" xmlns="http://www.w3.org/2000/svg">
  <path d="M90.52659626492353,53.308112943899836 C108.77066101958421,42.20586842029071 131.32501412427126,37.61804240928153 152.23682209660018,42.84132505919139 C178.73020628316382,49.45875546703493 196.52236015605158,71.83624283630722 211.77433428146492,92.89876403516122 C223.20687720297533,108.68676470058953 236.5339868266264,124.99534432492109 255.96485892426716,130.91020015784372 C269.843585544699,135.13495480045015 285.2699958423409,133.80372774927187 298.2018695034333,127.21876414104378 C314.34835536718697,118.99690669021815 328.9057587609067,107.48308039103908 339.73657142725006,92.86473308613755 C343.5109457740907,87.77046022217381 351.9021400647461,86.09843465863804 357.13526691386244,89.73657142725006 C362.3693291281137,93.37535847367643 363.69111272940546,101.80820411339896 360.26342857274994,107.13526691386245 C348.20009502495503,125.88324148067443 332.9874438172138,142.74513281367925 314.4829745046957,155.3466083516808 C294.1225806303202,169.21196168977687 268.11127848867477,174.23503739122654 244.0351410757328,169.08979984215628 C217.63881982914785,157.16777464645705 200.62523319641028,132.2119754057585 188.22566571853508,107.10123596483878 C178.73703720589407,87.88552713807901 169.37113871379023,64.99885782530487 147.76317790339982,57.15867494080861 C130.84516065157257,51.0201804081081 112.05289665551078,55.68454512432199 96.78855972694755,64.12651456337562 C79.78680513430234,73.52936601726518 65.33140030746858,87.06481874798928 54.105371429099975,102.85410676554498 C52.63157760866275,104.92698180991765 49.23785605160708,105.55973075634144 47.14589323445502,104.10537142909997 C45.053882150356635,102.6509785460596 44.466647605656156,99.25027066022498 45.894628570900025,97.14589323445503 C57.67925595096288,79.77920247784556 72.49914451454545,64.2785397737615 90.52659626492353,53.308112943899836 Z" stroke="orange" stroke-width="2" fill="none"/>
</svg>