<?xml version="1.0" encoding="UTF-8"?>
<svg width="400" height="200" viewBox="0 0 400 200" xmlns="http://www.w3.org/2000/svg">
  <path d="M88.00165042944954,11.998349570550445 C97.50994741758798,22.19993828651076 102.5,36.13226225773443 102.5,50 C102.5,63.867737742265554 97.50994741758798,77.80006171348924 88.00165042944954,88.00165042944954 C78.28298864247571,98.42894256640221 64.33533649447155,105.00000000000001 50,105 C35.664663505528445,104.99999999999999 21.717011357524264,98.42894256640223 11.998349570550445,88.00165042944954 C2.4900525824120123,77.80006171348921 -2.5000000000000018,63.867737742265554 -2.5,50 C-2.4999999999999982,36.132262257734446 2.490052582412007,22.199938286510765 11.998349570550445,11.998349570550445 C21.717011357524267,1.5710574335977547 35.66466350552844,-5.000000000000001 50,-5 C64.33533649447155,-4.999999999999998 78.28298864247573,1.5710574335977645 88.00165042944954,11.998349570550445 Z M50,5 C38.10712626580766,5.004369180287236 26.044092476827164,9.073409012490826 17.301650429449552,17.301650429449552 C8.371326189679593,25.70672344890262 2.500000000000001,37.620156538002014 2.5,50 C2.5000000000000018,62.37984346199798 8.37132618967959,74.29327655109739 17.301650429449552,82.69834957055045 C26.043849176008848,90.92636199681536 38.106339374894894,95 50,95 C61.893660625105106,95 73.95615082399114,90.92636199681536 82.69834957055045,82.69834957055045 C91.62867381032041,74.29327655109738 97.5,62.37984346199798 97.5,50 C97.5,37.620156538002014 91.62867381032041,25.70672344890262 82.69834957055045,17.301650429449552 C73.95615082399115,9.07363800318464 61.893660625105106,4.999999999999999 50,5 C50,5 50,5 50,5 Z" stroke="orange" stroke-width="2" fill="none"/>
</svg>