<?xml version="1.0" encoding="UTF-8"?>
<svg width="400" height="200" viewBox="0 0 400 200" xmlns="http://www.w3.org/2000/svg">
  <path d="M113.84663444038937,87.27052756936035 C127.88131245938177,80.58348576241566 145.50569226061646,67.70229284944418 142.61394185240843,51.30236133250198 C142.6727886691427,51.63609821438948 157.3272113308573,50.968624450614485 157.38605814759157,51.30236133250198 C160.8978066996065,71.21847705061305 182.19881189821015,79.78719115191632 198.0637537400285,89.52493447515924 C221.4869374820921,103.90185141362244 249.78268893211737,119.97371527579732 254.92403876506103,149.13175911166533 C255.2756131492523,151.12563652497258 250.5166665041434,152.93016135175378 250.86824088833467,154.92403876506103 C250.51666650414342,152.93016135175378 245.42753561913023,152.8621183016419 245.07596123493897,150.86824088833467 C240.438412827145,124.56739691561557 212.4800444712845,113.04032121750532 191.52486169301162,100.1782386948584 C171.33133458343994,87.78365283727679 147.04409182439767,73.82226766182055 142.61394185240843,48.69763866749802 C142.3677977068797,47.30168584995577 150.24614414552872,43.89595281754225 150,42.5 C150.53900036786214,45.55682298702383 156.84705777972943,45.64081568047419 157.38605814759157,48.69763866749802 C161.33813021397737,71.11095312741088 138.43094902644197,89.40331050284897 119.22333517988672,98.55507847570522 C97.40515383337292,108.95069215620438 71.47541965518175,113.13730238524106 48.28989928337166,104.69846310392954 C46.38736359931994,104.00599674530542 47.20407258012218,98.98236564199577 45.30153689607046,98.28989928337165 C47.20407258012217,98.98236564199576 49.807565032576626,94.60907053744636 51.71010071662834,95.30153689607046 C72.36468700590021,102.81919150644823 94.81457579789993,96.33864952002601 113.84663444038937,87.27052756936035 Z" stroke="orange" stroke-width="2" fill="none"/>
</svg>