<?xml version="1.0" encoding="UTF-8"?>
<svg width="400" height="200" viewBox="0 0 400 200" xmlns="http://www.w3.org/2000/svg">
  <path d="M113.84663444038937,87.27052756936035 C127.72771085598639,80.36623827784746 145.79881219584894,67.59039387121915 142.61394185240843,51.30236133250198 C147.5379806174695,51.30236133250198 152.4620193825305,51.30236133250198 157.38605814759157,51.30236133250198 C153.92834739583097,69.10378735981482 182.25601314520884,79.50571531937057 198.0637537400285,89.52493447515924 C221.26345000634882,104.22930287276371 250.07338516938825,119.85946263291835 254.92403876506103,149.13175911166533 C255.33984429390028,151.641025641962 253.37735106756406,154.4816149428926 250.86824088833467,154.92403876506103 C248.35932657391703,155.36642805097856 245.53728536424143,153.37044150685009 245.07596123493897,150.86824088833467 C240.23876281470635,124.63150166272952 212.65589946045156,112.73475075133699 191.52486169301162,100.1782386948584 C171.17098966007094,88.0835350465858 138.8660876472344,73.28793715040018 142.61394185240843,48.69763866749802 C143.13411821771228,45.284674505521274 146.56558057720662,42.5 150,42.5 C153.4354781276313,42.5 156.84629403759266,45.29112166090615 157.38605814759157,48.69763866749802 C160.95130724595853,71.19835974424376 138.67686356525763,89.73720346529682 119.22333517988672,98.55507847570522 C97.29472761035355,108.49485479134002 71.46834116311138,113.43690582970626 48.28989928337166,104.69846310392954 C45.91031556269233,103.8013425743342 44.430101148932934,100.68414932113757 45.30153689607046,98.28989928337165 C46.17291439905908,95.89580927008966 49.311681116114244,94.45376613697537 51.71010071662834,95.30153689607046 C72.36542789185049,102.60258730232212 94.91755226967999,96.68563742226407 113.84663444038937,87.27052756936035 Z" stroke="orange" stroke-width="2" fill="none"/>
</svg>