<?xml version="1.0" encoding="UTF-8"?>
<svg width="400" height="200" viewBox="0 0 400 200" xmlns="http://www.w3.org/2000/svg">
  <path d="M51.71010071662834,95.30153689607046 C69.12316771883279,101.27491094462174 94.03456229538808,97.1248265774485 113.84663444038937,87.27052756936035 C134.90330521434348,76.79717938029836 144.8609149983244,62.793809262142595 142.61394185240843,51.30236133250198 L157.38605814759157,51.30236133250198 C155.40498878267306,61.50155446530407 170.23169754397122,71.88449630426041 198.0637537400285,89.52493447515924 C221.70659624754504,104.5101766182542 250.9018150480728,123.20288260964298 254.92403876506103,149.13175911166533 C255.4035549668678,151.8512306291842 253.58771240585352,154.44452256325425 250.86824088833467,154.92403876506103 C248.1487693708158,155.4035549668678 245.55547743674575,153.58771240585352 245.07596123493897,150.86824088833467 C241.20507310505133,130.75250674914705 217.01859960192223,115.3271599613374 191.52486169301162,100.1782386948584 C169.16065241215705,86.88894989800805 139.66596203540757,71.60951729410476 142.61394185240843,48.69763866749802 C143.24596953146175,45.113231581787765 146.36029765733798,42.5 150,42.5 C153.63970234266202,42.5 156.75403046853825,45.11323158178776 157.38605814759157,48.69763866749802 C160.56628419522517,71.305000538943 140.6808018235468,88.82886042643412 119.22333517988672,98.55507847570522 C97.16369020689153,108.55425128859886 68.90050561503472,112.73984839839798 48.28989928337166,104.69846310392954 C45.695009763428715,103.754000557461 44.357074349601916,100.88478880331459 45.30153689607046,98.28989928337165 C46.245999442539,95.69500976342871 49.1152111966854,94.35707434960192 51.71010071662834,95.30153689607046" stroke="orange" stroke-width="2" fill="none"/>
</svg>