<?xml version="1.0" encoding="UTF-8"?>
<svg xmlns="http://www.w3.org/2000/svg" viewBox="0 0 1000 1000" width="1000" height="1000">
  <rect width="1000" height="1000" fill="white"/>
  <path d="M92.40518530353074,56.55363342974257C109.76579366542506,46.504875853116495 131.16505824347502,41.495575031334496 150.7456073655334,47.61377501973046C175.15580340120516,55.24106167911962 189.635651316507,77.97449531552661 202.14078805117543,98.70886618821113C214.03202683465096,118.42535232535923 227.48297251118146,140.3450589378296 250.7456073655334,147.61377501973047C269.00950036225976,153.32056849237895 288.922598360108,148.47712234801713 305.0900293116597,139.11900592246712C322.3153975358092,129.14852874538104 336.6414617376809,114.83538101230734 347.94731428545003,98.57294661722752C348.67425886810156,97.52730335111556 350.38141011666056,97.22036970279846 351.4270533827725,97.94731428545003C352.47269664888444,98.6742588681016 352.7796302972015,100.38141011666053 352.05268571454997,101.42705338277248C340.3290971577816,118.29036280360646 325.4535557420383,133.10927724425397 307.59481469646926,143.44636657025745C290.2342063345749,153.4951241468835 268.834941756525,158.5044249686655 249.2543926344666,152.38622498026953C224.84419659879487,144.75893832088036 210.364348683493,122.02550468447339 197.85921194882457,101.29113381178887C185.96797316534904,81.57464767464079 172.51702748881857,59.65494106217041 149.2543926344666,52.38622498026954C130.99049963774027,46.67943150762104 111.07740163989203,51.5228776519829 94.90997068834034,60.88099407753288C77.68460246419076,70.85147125461894 63.35853826231907,85.16461898769265 52.05268571454999,101.42705338277248C51.32574113189843,102.47269664888445 49.61858988333948,102.77963029720155 48.572946617227515,102.05268571455C47.52730335111555,101.32574113189844 47.22036970279846,99.61858988333948 47.94731428545001,98.57294661722752C59.67090284221848,81.7096371963936 74.5464442579617,66.89072275574607 92.40518530353074,56.55363342974257Z" fill="none" stroke="black" stroke-width="1"/>
</svg>
