<?xml version="1.0" encoding="UTF-8"?>
<svg xmlns="http://www.w3.org/2000/svg" viewBox="0 0 1000 1000" width="1000" height="1000">
  <rect width="1000" height="1000" fill="white"/>
  <path d="M90.52659626492353,53.308112943899836C108.86957763045648,42.69073311869784 131.37480142141365,36.3227124371862 152.23682209660018,42.84132505919139C178.35821107313438,51.003296449109044 205.61763822877003,63.327714934193494 220.3374864861667,87.73422878800574C229.15287551992495,102.35074594340857 246.6278498019564,107.03913047890116 261.9297178485343,111.82040031568742C272.25126273522835,115.04550270747168 283.21373410088677,124.33988749725962 293.192298733814,118.56404284546315C308.69415981487253,109.5911750321434 327.4998550055436,106.91744031630576 339.73657142725006,92.86473308613755C343.84135250092015,88.15078167267677 351.8889390767556,86.0892571628167 357.13526691386244,89.73657142725006C362.38470661330115,93.38604909820782 363.13344187888924,101.61028615830786 360.26342857274994,107.13526691386245C349.5107244430565,127.83499093940834 340.78434310750265,151.67710054559828 319.4925452743149,164.00132964726143C294.98515709064253,178.18682347099985 267.2590771362382,197.30002240708217 238.07028215146562,188.17959968431256C204.9396622277277,177.82750193825837 196.25287063915437,139.77371653441796 179.6625135138333,112.26577121199426C168.31474608428996,93.45039770161742 169.47520049729283,63.94288183684301 147.76317790339982,57.15867494080861C130.7750001270725,51.85049545993263 111.98279197249225,55.33171007175625 96.78855972694755,64.12651456337562C80.02521861578718,73.82955880519384 65.1897497500478,86.91024278067218 54.105371429099975,102.85410676554498C52.94966586167702,104.51648347626485 48.30159880187798,102.4429947183801 47.14589323445502,104.10537142909997C48.30159880187799,102.44299471838009 44.73892300347706,98.80826994517491 45.894628570900025,97.14589323445503C57.851363044115544,79.94722474585667 72.1892912304879,63.92220716562916 90.52659626492353,53.308112943899836Z" fill="none" stroke="black" stroke-width="1"/>
</svg>
