<?xml version="1.0" encoding="UTF-8"?>
<svg xmlns="http://www.w3.org/2000/svg" viewBox="0 0 400 200" width="400" height="200">
  <path d="M137.20294759132292,62.7970524086771C146.55959060325887,72.80869582666205 152.5,86.19315313277417 152.5,100C152.5,113.80684686722584 146.55959060325887,127.19130417333797 137.20294759132292,137.20294759132292C127.62659584185191,147.44968018960583 114.3073084720907,155 100,155C85.69269152790929,155.00000000000003 72.3734041581481,147.4496801896058 62.79705240867708,137.2029475913229C53.44040939674113,127.19130417333795 47.5,113.80684686722583 47.5,100C47.5,86.19315313277416 53.44040939674113,72.80869582666203 62.79705240867708,62.79705240867708C72.3734041581481,52.55031981039417 85.6926915279093,44.99999999999999 100,45C114.3073084720907,45 127.62659584185191,52.55031981039418 137.20294759132292,62.7970524086771ZM100,55C88.16933375677856,55.004346326622986 76.65782474404946,60.036523058264095 68.1003532675762,68.1003532675762C59.33565891382788,76.35945261712736 52.50000000000001,87.6456645663956 52.5,100C52.5,112.35433543360439 59.33565891382788,123.64054738287265 68.1003532675762,131.8996467324238C76.65760620592441,139.96327101007262 88.16847098714747,145 100,145C111.83152901285251,145 123.3423937940756,139.96327101007265 131.89964673242383,131.89964673242383C140.66434108617216,123.64054738287267 147.5,112.35433543360439 147.5,100C147.5,87.6456645663956 140.66434108617213,76.35945261712735 131.89964673242383,68.1003532675762C123.3423937940756,60.03672898992737 111.83152901285253,55 100,55C100,55 100,55 100,55Z" fill="#AFDBF5" stroke="orangered" stroke-width="1"/>
</svg>
