<?xml version="1.0" encoding="UTF-8"?>
<svg xmlns="http://www.w3.org/2000/svg" viewBox="0 0 400 200" width="400" height="200">
  <path d="M112.00990095780566,86.04928622635066C126.62314499127457,79.50996684800575 142.6543807705889,67.07556826894192 142.5,50C142.4734631295407,47.06484077360522 144.4248813267171,44.19134826412033 147.12987425726183,43.07090350616535C149.8349070336669,41.950442243514615 153.24625538886056,42.60296851278731 155.3033008588991,44.69669914110089C171.82524596817024,61.51329508827197 188.04729567374233,78.61920227538886 204.41941738241593,95.58058261758407C220.7915390910895,112.54196295977928 237.01358879666157,129.64787014689622 253.53553390593274,146.46446609406726C255.3184486280235,148.27917715207937 255.33703045413714,151.73403735772834 253.53553390593274,153.53553390593274C251.73403735772834,155.33703045413714 248.27917715207937,155.3184486280235 246.46446609406726,153.53553390593274C229.64787014689622,137.01358879666157 212.54196295977928,120.7915390910895 195.58058261758407,104.41941738241593C178.619288125423,88.04737854124367 161.6579936332619,71.67533970007139 144.69669914110088,55.30330085889911C149.096168321159,53.48098105727659 155.1830582617584,47.683058261758404 157.5,50C164.7406292176077,57.24062921760769 137.48135060387182,89.26928150074521 116.91060415339689,97.54855177632044C95.54750632211703,106.14672595024001 71.86306282860724,109.19899079369894 49.131759111665346,104.92403876506104C46.632458660342664,104.45400899168757 44.63352312556305,101.64095031767496 45.07596123493896,99.13175911166535C45.51838078803134,96.62267314356913 48.35899550789887,94.65935454486763 50.868240888334654,95.07596123493896C71.61282678674809,98.52015738068914 92.97327678804712,94.5680357282722 112.00990095780566,86.04928622635066Z" fill="#AFDBF5" stroke="orangered" stroke-width="1"/>
</svg>
