<?xml version="1.0" encoding="UTF-8"?>
<svg xmlns="http://www.w3.org/2000/svg" viewBox="0 0 400 200" width="400" height="200">
  <path d="M50.868240888334654,95.07596123493896C69.19386434388227,97.93044337226472 93.03053088950102,94.542414938373 112.00990095780566,86.04928622635066C131.6279358772733,77.27035968409207 142.76243944828968,64.51261188728347 142.5,50C142.5,46.96653316392658 144.32731633486182,44.2317610069596 147.12987425726183,43.07090350616535C149.93243217966184,41.9100460053711 153.1583158886071,42.55171417080888 155.3033008588991,44.69669914110089C171.6753397000714,61.65799363326195 188.04737854124366,78.61928812542301 204.41941738241593,95.58058261758407C220.7914562235882,112.54187710974513 237.16349506476047,129.5031716019062 253.53553390593274,146.46446609406726C255.48815536468908,148.4170875528236 255.48815536468908,151.5829124471764 253.53553390593274,153.53553390593274C251.5829124471764,155.48815536468908 248.4170875528236,155.48815536468908 246.46446609406726,153.53553390593274C229.50317160190622,137.16349506476047 212.54187710974514,120.7914562235882 195.58058261758407,104.41941738241593C178.619288125423,88.04737854124366 161.65799363326192,71.67533970007139 144.69669914110088,55.30330085889911L157.5,50C156.8433636429111,73.57055038605365 138.04659777232766,89.0417820227162 116.91060415339689,97.54855177632044C95.52540179739329,106.15562253233253 69.37154993243021,108.96900851912125 49.131759111665346,104.92403876506104C46.412287594146484,104.44452256325427 44.59644503313219,101.85123062918422 45.07596123493896,99.13175911166535C45.555477436745726,96.41228759414648 48.148769370815785,94.5964450331322 50.868240888334654,95.07596123493896" fill="#AFDBF5" stroke="orangered" stroke-width="1"/>
</svg>
