<?xml version="1.0" encoding="UTF-8"?>
<svg xmlns="http://www.w3.org/2000/svg" viewBox="0 0 400 200" width="400" height="200">
  <path d="M46.055039999345816,96.92798265088908C57.86399768592462,81.03677848868223 73.3468589978998,66.9117006216904 91.14857004140119,56.89244814300805C108.98944068405689,46.85115565311935 129.25233512007173,41.176759452922205 150.64544382760067,42.52782479692746L150.64544382760067,42.527824796927455C178.3810460578021,45.42543783138438 201.1186832121515,60.27165650162475 218.44778243919183,80.08257769101048C235.74811452299446,99.86061179261058 248.0443592031421,124.66651097499796 254.78719097390692,148.55680819731262C255.58424379761198,151.20070076672903 254.0870843721038,153.99013815020186 251.44319180268738,154.78719097390692C248.79929923327097,155.58424379761198 246.00986184979814,154.0870843721038 245.21280902609308,151.44319180268738C238.01281297216485,128.93249432214938 225.6727375892986,106.10941970091059 209.1833633970175,88.47427238344285C192.6611434828294,70.80399704123482 172.46492241364822,59.11937208326555 149.35455617239933,57.472175203072545L149.35455617239933,57.47217520307254C131.40095438092027,55.56820021548344 113.5748377253093,59.525037744046514 97.03199699702198,67.92128703284023C80.52276584193874,76.30047792400161 65.65069969195585,88.67567381954866 53.944960000654184,103.07201734911092C52.248331667524596,105.25075859616472 49.10672389794286,105.64158833378377 46.92798265088907,103.94496000065419C44.74924140383529,102.2483316675246 44.35841166621623,99.10672389794286 46.055039999345816,96.92798265088908" fill="#AFDBF5" stroke="orangered" stroke-width="1"/>
</svg>
