<?xml version="1.0" encoding="UTF-8"?>
<svg xmlns="http://www.w3.org/2000/svg" viewBox="0 0 1000 1000" width="1000" height="1000">
  <rect width="1000" height="1000" fill="white"/>
  <path d="M50,97.5C58.333333333333336,97.5 66.66666666666667,97.5 75,97.5C83.33333333333333,97.5 91.66666666666667,97.5 100,97.5L97.5,100C97.5,89.58333333333333 97.5,79.16666666666666 97.5,68.75C97.5,62.5 97.5,50 97.5,50C97.5,48.61928812542302 98.61928812542301,47.5 100,47.5C101.38071187457699,47.5 102.5,48.61928812542302 102.5,50C102.5,50 102.5,62.5 102.5,68.75C102.5,79.16666666666666 102.5,89.58333333333333 102.5,100C102.5,101.38071187457699 101.38071187457699,102.5 100,102.5C91.66666666666667,102.5 83.33333333333333,102.5 75,102.5C66.66666666666667,102.5 58.333333333333336,102.5 50,102.5C48.61928812542302,102.5 47.5,101.38071187457699 47.5,100C47.5,98.61928812542301 48.61928812542302,97.5 50,97.5" fill="none" stroke="black" stroke-width="1"/>
</svg>
