<?xml version="1.0" encoding="UTF-8"?>
<svg xmlns="http://www.w3.org/2000/svg" viewBox="0 0 1000 1000" width="1000" height="1000">
  <rect width="1000" height="1000" fill="white"/>
  <path d="M75,97.5C83.33333333333333,97.5 91.66666666666667,97.5 100,97.5C99.16666666666667,98.33333333333333 98.33333333333333,99.16666666666667 97.5,100C97.5,89.58333333333333 97.5,79.16666666666666 97.5,68.75C97.5,62.43355668106795 94.89805060718446,56.10206732201857 97.5,50C97.96480489491674,48.90994391811881 98.71785525545201,47.5 100,47.5C101.27350628824979,47.5 102.5,48.72649371175022 102.5,50C102.5,56.25 102.5,62.5 102.5,68.75C102.5,79.16666666666667 102.5,89.58333333333334 102.5,100C102.5,101.27350628824979 101.27350628824979,102.5 100,102.5C91.66666666666667,102.5 83.33333333333333,102.5 75,102.5C66.66666666666667,102.5 58.33333333333333,102.5 50,102.5C48.72649371175022,102.5 47.5,101.27350628824979 47.5,100C47.5,98.72649371175021 48.72649371175022,97.5 50,97.5C58.33333333333333,97.5 66.66666666666667,97.5 75,97.5Z" fill="none" stroke="black" stroke-width="1"/>
</svg>
