<?xml version="1.0" encoding="UTF-8"?>
<svg xmlns="http://www.w3.org/2000/svg" viewBox="0 0 1000 1000" width="1000" height="1000">
  <rect width="1000" height="1000" fill="white"/>
  <path d="M100,45C114.33126564601662,45.53651412291157 127.61892692002564,52.542114035029336 137.20294759132292,62.7970524086771C146.75089734189282,73.013394760694 152.97398196379672,86.42611275255801 152.5,100L152.5,100C152.97398196379672,113.57388724744197 146.75089734189282,126.98660523930603 137.20294759132292,137.20294759132292C127.61892692002567,147.45788596497064 114.33126564601659,154.46348587708843 100,155L100,155C85.66873435398334,154.46348587708843 72.38107307997441,147.4578859649707 62.79705240867708,137.2029475913229C53.24910265810718,126.986605239306 47.026018036203276,113.57388724744202 47.5,100L47.5,100C47.02601803620328,86.42611275255801 53.24910265810718,73.01339476069398 62.79705240867708,62.79705240867708C72.38107307997433,52.54211403502936 85.66873435398341,45.53651412291156 100,45L100,45ZM100,55L100,55C88.79534529848375,54.674439330705724 77.21459573756725,59.51186962885555 68.1003532675762,68.1003532675762C59.122314676825866,76.56049000393597 52.867501746365875,88.05975095282079 52.5,100L52.5,100C52.86750174636587,111.94024904717921 59.12231467682587,123.43950999606403 68.1003532675762,131.8996467324238C77.2145957375673,140.48813037114448 88.79534529848371,145.32556066929428 100,145L100,145C111.20465470151618,145.32556066929428 122.78540426243282,140.48813037114445 131.89964673242383,131.89964673242383C140.87768532317412,123.4395099960641 147.13249825363414,111.94024904717912 147.5,100L147.5,100C147.13249825363414,88.05975095282088 140.87768532317412,76.56049000393593 131.89964673242383,68.1003532675762C122.78540426243278,59.51186962885555 111.2046547015162,54.674439330705724 100,55Z" fill="none" stroke="black" stroke-width="1"/>
</svg>
