<?xml version="1.0" encoding="UTF-8"?>
<svg xmlns="http://www.w3.org/2000/svg" viewBox="0 0 1000 1000" width="1000" height="1000">
  <rect width="1000" height="1000" fill="white"/>
  <path d="M112.00990095780566,86.04928622635066C126.79030224690331,79.75024395144709 142.5,67.0492815981404 142.5,50C142.5,47.075389654531634 147.12987425726183,45.99551385163372 147.12987425726183,43.07090350616535C147.12987425726183,43.296361258115816 155.3033008588991,44.47124138915043 155.3033008588991,44.69669914110089C155.3033008588991,69.88432499928902 187.26497921012412,78.42614444529227 204.41941738241593,95.58058261758407C221.0923113856388,112.25347662080694 237.01232569706065,129.6465845212941 253.53553390593274,146.46446609406726C255.3184486280235,148.27917715207937 255.33703045413714,151.73403735772834 253.53553390593274,153.53553390593274C251.73403735772834,155.33703045413714 248.27917715207937,155.3184486280235 246.46446609406726,153.53553390593274C229.6465845212941,137.01232569706065 212.25347662080696,121.09231138563881 195.58058261758407,104.41941738241593C178.90870924467978,87.74754400951163 161.65833704976032,71.67567118587004 144.69669914110088,55.30330085889911C148.96446609406726,53.53553390593274 153.23223304703362,51.76776695296637 157.5,50C156.87296247905147,72.50807364213945 136.4903942597454,89.20412842804495 116.91060415339689,97.54855177632044C95.64339463226264,106.61211163661127 71.84029574168937,108.92816646534077 49.131759111665346,104.92403876506104C47.13788169835809,104.57246438086976 47.06983864824621,99.48333349585663 45.07596123493896,99.13175911166535C47.06983864824621,99.48333349585663 48.8743634750274,94.72438685074768 50.868240888334654,95.07596123493896C71.64044886787892,98.73866195062028 92.88089181540758,94.201597852278 112.00990095780566,86.04928622635066Z" fill="none" stroke="black" stroke-width="1"/>
</svg>
