<?xml version="1.0" encoding="UTF-8"?>
<svg xmlns="http://www.w3.org/2000/svg" viewBox="0 0 1000 1000" width="1000" height="1000">
  <rect width="1000" height="1000" fill="white"/>
  <path d="M91.14857004140119,56.89244814300805C109.3107590472456,47.20367551359023 129.82770896492758,40.78375755246831 150.64544382760067,42.52782479692746C177.3991939433608,44.76919925726829 200.85484864761898,60.660003729478845 218.44778243919183,80.08257769101048C236.0453953732164,99.51031741917441 247.5024900794362,123.59471951975877 254.78719097390692,148.55680819731262C255.49987918275102,150.99893815245144 253.88245950737888,154.05182629446153 251.44319180268738,154.78719097390692C249.00396011642212,155.52254479489736 245.9675398791545,153.87283313557234 245.21280902609308,151.44319180268738C237.97086693912416,128.1298188916863 225.5657473823692,106.56040107529977 209.1833633970175,88.47427238344285C193.785470734911,71.47502071657507 172.39944861639395,59.514780159474206 149.35455617239933,57.472175203072545C131.37058918693933,55.878149967782846 112.98788027578156,59.409486768032664 97.03199699702198,67.92128703284023C80.56955967366444,76.70331281732727 65.6021135345974,88.42308763047 53.944960000654184,103.07201734911092C52.36124456933847,105.06218896177076 48.93820303978395,105.51035785239351 46.92798265088907,103.94496000065419C44.91771559366138,102.37952580737324 44.51524647497613,98.95199356165595 46.055039999345816,96.92798265088908C58.29564596001425,80.83808512457455 73.18127584410752,66.47725249601963 91.14857004140119,56.89244814300805Z" fill="none" stroke="black" stroke-width="1"/>
</svg>
