<?xml version="1.0" encoding="UTF-8"?>
<svg xmlns="http://www.w3.org/2000/svg" viewBox="0 0 1000 1000" width="1000" height="1000">
  <rect width="1000" height="1000" fill="white"/>
  <path d="M91.14857004140119,56.89244814300805C109.14239722135217,46.765067851689395 129.86003524442955,40.78646578204211 150.64544382760067,42.52782479692746C177.36265749524617,44.76613830837996 201.14605878642337,60.302952724083205 218.44778243919183,80.08257769101048C235.6613759475763,99.76145077684309 247.4972927261112,123.57691003156341 254.78719097390692,148.55680819731262C255.49987918275102,150.99893815245144 253.88245950737888,154.05182629446153 251.44319180268738,154.78719097390692C249.00396011642212,155.52254479489736 245.9675398791545,153.87283313557234 245.21280902609308,151.44319180268738C237.97627442615067,128.1472267582566 225.88526140202816,106.33671084624162 209.1833633970175,88.47427238344285C193.56172390980348,71.76715478850397 172.42699911857414,59.517222123238675 149.35455617239933,57.472175203072545C131.34856537556686,55.876197867273916 113.1061277856048,59.762929504145795 97.03199699702198,67.92128703284023C80.35343200473169,76.38642260143462 65.59072536295646,88.4373985448374 53.944960000654184,103.07201734911092C52.36124456933847,105.06218896177076 48.93820303978395,105.51035785239351 46.92798265088907,103.94496000065419C44.91771559366138,102.37952580737324 44.51524647497613,98.95199356165595 46.055039999345816,96.92798265088908C58.30663090855799,80.82364574984352 73.45871851608545,66.84874326033861 91.14857004140119,56.89244814300805Z" fill="none" stroke="black" stroke-width="1"/>
</svg>
