<?xml version="1.0" encoding="UTF-8"?>
<svg xmlns="http://www.w3.org/2000/svg" viewBox="0 0 1000 1000" width="1000" height="1000">
  <rect width="1000" height="1000" fill="white"/>
  <path d="M90.52659626492353,53.308112943899836C108.93697416913636,42.65172230383582 131.28943213626476,37.60915485728939 152.23682209660018,42.84132505919139C178.5552287292411,49.415050148836826 198.21657601901623,70.41907476983093 211.77433428146492,92.89876403516122C221.9394975622189,109.7532990887626 236.66220409554148,125.03437431066301 255.96485892426716,130.91020015784372C269.79074030914177,135.11886844322402 285.5047442052081,134.56818020885655 298.2018695034333,127.21876414104378C313.79902104537325,118.190739807814 328.8728231826535,107.5275335393322 339.73657142725006,92.86473308613755C343.5109457740907,87.77046022217381 351.9021400647461,86.09843465863804 357.13526691386244,89.73657142725006C362.3693291281137,93.37535847367643 363.69111272940546,101.80820411339896 360.26342857274994,107.13526691386245C348.2306332193815,125.83578119201074 334.086862807682,143.9993838184462 314.4829745046957,155.3466083516808C293.5697884750457,167.4516874011056 268.08955717192333,176.99141669031167 244.0351410757328,169.08979984215628C215.74282942941088,159.79607990799232 202.58487684083738,130.90978881525163 188.22566571853508,107.10123596483878C177.13932627269753,88.71932790835223 169.47594046028306,65.03688385035778 147.76317790339982,57.15867494080861C130.8715169233105,51.02974345722654 111.93599300847353,55.358798491381755 96.78855972694755,64.12651456337562C80.01714440635605,73.83423236106843 65.3416279494009,87.05043368039685 54.105371429099975,102.85410676554498C52.63157760866275,104.92698180991765 49.23785605160708,105.55973075634144 47.14589323445502,104.10537142909997C45.053882150356635,102.6509785460596 44.466647605656156,99.25027066022498 45.894628570900025,97.14589323445503C57.66912345998663,79.79413445929085 72.20151319911963,63.91513278221301 90.52659626492353,53.308112943899836Z" fill="none" stroke="black" stroke-width="1"/>
</svg>
