<?xml version="1.0" encoding="UTF-8"?>
<svg xmlns="http://www.w3.org/2000/svg" viewBox="0 0 1000 1000" width="1000" height="1000">
  <rect width="1000" height="1000" fill="white"/>
  <path d="M90.52659626492353,53.308112943899836C108.86638084572108,42.14761907016947 131.29252203785538,39.19092772377202 152.23682209660018,42.84132505919139C180.21824113862516,47.71822699555442 201.58294267334546,67.93471991208632 220.3374864861667,87.73422878800574C231.57817076483923,99.6012211482696 246.56328181664594,106.94654823227371 261.9297178485343,111.82040031568742C272.1526239868137,115.06285238962305 282.33083472221256,122.46057180375385 293.192298733814,118.56404284546315C309.882300377732,112.57653741801964 327.6672678626174,106.72518254175682 339.73657142725006,92.86473308613755C343.84135250092015,88.15078167267677 351.8889390767556,86.0892571628167 357.13526691386244,89.73657142725006C362.38470661330115,93.38604909820782 363.13344187888924,101.61028615830786 360.26342857274994,107.13526691386245C349.4630217789513,127.92682197747568 335.4800841014005,146.92092838253782 319.4925452743149,164.00132964726143C298.5288672544218,186.39802475067617 265.678366894219,179.80150074516303 238.07028215146562,188.17959968431256C217.37954313537392,163.7516003958333 190.3452278937791,143.7506932964397 179.6625135138333,112.26577121199426C172.83823161514488,92.15271977013909 168.969707501396,66.24673969857909 147.76317790339982,57.15867494080861C131.02596751583852,49.985938300252435 112.00205337187401,55.71266409527052 96.78855972694755,64.12651456337562C79.78680513430234,73.52936601726518 65.33140030746858,87.06481874798928 54.105371429099975,102.85410676554498C52.63157760866275,104.92698180991765 49.23785605160708,105.55973075634144 47.14589323445502,104.10537142909997C45.053882150356635,102.6509785460596 44.466647605656156,99.25027066022498 45.894628570900025,97.14589323445503C57.67925595096288,79.77920247784556 72.49914451454545,64.2785397737615 90.52659626492353,53.308112943899836Z" fill="none" stroke="black" stroke-width="1"/>
</svg>
