<?xml version="1.0" encoding="UTF-8"?>
<svg xmlns="http://www.w3.org/2000/svg" viewBox="0 0 1000 1000" width="1000" height="1000">
  <rect width="1000" height="1000" fill="white"/>
  <path d="M45.894628570900025,97.14589323445502C56.767549966218404,80.72633697863591 72.34686812639839,64.3712060583376 90.52659626492353,53.308112943899836C108.75266844478962,42.2168176230953 130.11246209103467,36.494756015418865 152.23682209660018,42.84132505919139L152.23682209660018,42.84132505919139C181.27550068526537,44.75358522973765 204.12867891339062,70.62229940128009 220.3374864861667,87.73422878800574C246.51469790295423,115.36998122039378 244.8012061931094,108.76261504924126 261.9297178485343,111.82040031568742L261.9297178485344,111.82040031568744C269.32255796784386,115.27931353299854 273.9918824211613,125.45215462243692 293.192298733814,118.56404284546315C310.80547609803375,112.2453499350151 324.0514856138695,107.34388323454043 339.73657142725006,92.86473308613755C343.6772705297485,87.19639800443014 351.466931832155,85.7958723247516 357.13526691386244,89.73657142725006C362.80360199556986,93.67727052974851 364.2041276752484,101.46693183215503 360.26342857274994,107.13526691386245C351.3072002906307,131.61893146112106 339.6208724138742,142.4970876216631 319.4925452743149,164.00132964726143C284.61979663612465,201.25787966326624 288.56354191889153,172.8566415713738 238.07028215146562,188.17959968431256L238.07028215146565,188.17959968431256C182.59213767317345,122.68072732466005 202.73444682073503,180.2651575729172 179.6625135138333,112.26577121199426C172.42817794197578,90.94417786861587 165.52515386939604,66.6014563331542 147.76317790339982,57.15867494080861L147.76317790339982,57.15867494080861C131.05793540558088,51.601991877623746 113.5791551145734,54.84044509378654 96.78855972694755,64.12651456337562C80.06753984812308,73.37410517064946 65.03300764285193,87.82309954003743 54.105371429099975,102.85410676554498C52.529091788100594,105.12144079822795 49.41322726713799,105.68165107009936 47.14589323445502,104.10537142909997C44.878559201772056,102.5290917881006 44.318348929900644,99.413227267138 45.894628570900025,97.14589323445503" fill="none" stroke="black" stroke-width="1"/>
</svg>
