<?xml version="1.0" encoding="UTF-8"?>
<svg xmlns="http://www.w3.org/2000/svg" viewBox="0 0 1000 1000" width="1000" height="1000">
  <rect width="1000" height="1000" fill="white"/>
  <path d="M90.52659626492353,53.308112943899836C108.95948558788861,42.638692127413904 131.27553823766817,38.012662658553126 152.23682209660018,42.84132505919139C178.82773299961352,48.966833999398304 200.13536620871588,68.75985334009367 213.91512233264038,91.60763022337235C223.69772762392356,107.82785799970856 239.28888098437517,120.53887267888132 257.45607365533397,126.13775019730464C270.165268221144,130.0545481869869 284.91404363187496,132.0214958129664 296.94947681102843,125.05508381714861C312.4003262284047,116.11174284017227 328.5730831595378,107.3188207559481 339.73657142725006,92.86473308613755C343.59943291970114,87.86323737715652 351.89878301778015,86.09610079661766 357.13526691386244,89.73657142725006C362.37331792668857,93.37813153750159 363.55106361984286,101.75006736683412 360.26342857274994,107.13526691386245C348.5662515033022,126.29543273324083 335.7129331651866,145.94677009376247 315.7353671971005,157.51028867557596C293.77673931603437,170.22049581189424 267.97066215131554,177.14140005968713 242.54392634466603,173.86224980269535C216.19745330752204,159.61963558009722 200.97698096454167,133.08449425232914 186.08487766735962,108.39236977662765C175.0059977983619,90.02283020806985 169.36652754133718,65.34982679417755 147.76317790339982,57.15867494080861C130.91011523511494,50.76864756894939 111.92176559056495,55.36703367937313 96.78855972694755,64.12651456337562C80.01714440635605,73.83423236106843 65.3416279494009,87.05043368039685 54.105371429099975,102.85410676554498C52.63157760866275,104.92698180991765 49.23785605160708,105.55973075634144 47.14589323445502,104.10537142909997C45.053882150356635,102.6509785460596 44.466647605656156,99.25027066022498 45.894628570900025,97.14589323445503C57.66912345998663,79.79413445929085 72.20151319911963,63.91513278221301 90.52659626492353,53.308112943899836Z" fill="none" stroke="black" stroke-width="1"/>
</svg>
